<?xml version="1.0" encoding="utf-8"?>
<!-- Generator: Adobe Illustrator 19.1.0, SVG Export Plug-In . SVG Version: 6.00 Build 0)  -->
<!DOCTYPE svg PUBLIC "-//W3C//DTD SVG 1.1//EN" "http://www.w3.org/Graphics/SVG/1.1/DTD/svg11.dtd">
<svg version="1.1" id="Ebene_1" xmlns="http://www.w3.org/2000/svg" xmlns:xlink="http://www.w3.org/1999/xlink" x="0px" y="0px"
	 viewBox="-563 409.5 64.1 23.5" style="enable-background:new -563 409.5 64.1 23.5;" xml:space="preserve">
<style type="text/css">
	.st0{fill:#129B53;}
	.st1{fill:#FFFFFF;}
	.st2{fill:#009EDA;}
	.st3{fill:#313687;}
	.st4{fill:#E61C7E;}
	.st5{fill:#9C2C8B;}
	.st6{fill:#F08031;}
	.st7{fill:#FCE933;}
	.st8{fill:#90BF49;}
	.st9{fill:#E8313E;}
</style>
<g>
	<polygon class="st0" points="-559.5,432.9 -553.3,430 -559.5,429.4 	"/>
	<path class="st1" d="M-532.6,416.7c0-0.2-0.1-0.2-0.2-0.2c-1,0-2,0-3,0c-0.2,0-0.2,0-0.2,0.2c0,0.6-0.1,1.1-0.1,1.7
		c-0.2-0.2-0.3-0.5-0.5-0.6c-1-1-2.3-1.5-3.7-1.6c-0.8-0.1-1.6,0-2.4,0.2c-2,0.5-3.6,1.5-4.5,3.1c-0.2,0.4-0.4,0.8-0.6,1.3
		c-0.7,2-0.6,4,0,6c0.4,1.3,1.1,2.3,2.1,3.1c0.2,0.1,0.3,0.3,0.5,0.4c1.7,1.1,3.6,1.4,5.5,1c1.1-0.2,2.1-0.7,3-1.5
		c0.2-0.2,0.4-0.5,0.6-0.9c0.1,0.6,0.1,1.2,0.1,1.8c0,0.2,0.1,0.3,0.3,0.3c1,0,1.9,0,2.9,0c0.2,0,0.2,0,0.2-0.2c0-2,0-4,0-6.1
		c0-2.3,0-4.6,0-6.9C-532.6,417.4-532.6,417-532.6,416.7 M-536.3,422.9c0.2,1,0.1,1.9-0.3,2.7c-0.1,0.3-0.2,0.5-0.4,0.8
		c-0.6,1-1.5,1.5-2.6,1.7c-1.2,0.2-2.3,0-3.3-0.6c-0.1,0-0.1-0.1-0.2-0.1c-0.9-0.7-1.4-1.6-1.6-2.8c-0.1-1,0-2,0.4-3
		c0.3-0.6,0.7-1.1,1.2-1.4c0.5-0.4,1.1-0.6,1.8-0.7c0.1,0,0.2,0,0.3,0c0.2,0,0.3,0,0.5,0c1.2,0,2.3,0.4,3.1,1.3
		c0.2,0.2,0.4,0.5,0.6,0.8C-536.5,422-536.4,422.4-536.3,422.9"/>
	<path class="st1" d="M-525.5,423.6c0-0.7,0-1.4,0-2.1c0-1.6,0-3.3,0-4.9c0-0.2,0-0.3-0.3-0.3c-1,0-2.1,0-3.1,0
		c-0.2,0-0.2,0-0.2,0.2c0,1,0,2,0,3c0,3.1,0,6.2,0,9.2c0,0.6,0,1.2,0,1.8c0,0.2,0.1,0.2,0.2,0.2c1,0,2.1,0,3.1,0
		c0.2,0,0.3-0.1,0.3-0.3c0-1.2,0-2.5,0-3.7C-525.5,425.9-525.5,424.8-525.5,423.6"/>
	<path class="st1" d="M-499,421.8c0-0.1,0-0.1,0-0.2c-0.3-2.9-1.8-4.7-4.2-5.3c-0.3-0.1-0.5-0.1-0.8-0.1c-0.4,0-0.7-0.1-1.1-0.1
		c-2.1,0-3.7,0.8-4.8,2.5c-1-2.3-3.1-2.6-4.3-2.6c-0.5,0-2.2,0.1-3.3,1.2c-0.2,0.2-0.3,0.4-0.5,0.6l-0.1-0.8l-0.1-0.8
		c0,0,0-0.1-0.1-0.1h-3.3c0,0-0.1,0-0.1,0.1v14.5c0,0,0,0.1,0.1,0.1h3.6c0,0,0.1,0,0.1-0.1v-3.1v-4.6c0-0.9,0.3-1.9,0.8-2.5
		c0.5-0.6,1.2-1,2.1-1c1.9,0,2.8,1.6,2.9,3.3c0,0.1,0,0.1,0,0.2v2.2v5.5c0,0,0,0.1,0.1,0.1h0.2h3.3c0,0,0.1,0,0.1-0.1V429v-3.8v-2
		c0-1.7,0.9-2.8,1.9-3.3c0.4-0.2,0.7-0.2,1.1-0.2c0.1,0,0.1,0,0.2,0c0.8,0,1.4,0.4,1.8,1c0.4,0.6,0.7,1.4,0.7,2.5v6.4v1.4
		c0,0,0,0.1,0.1,0.1h3.6c0,0,0.1,0,0.1-0.1v-7.8C-499,422.7-499,422.3-499,421.8"/>
	<polygon class="st2" points="-563,414 -563,416.6 -560.2,415.3 -561.9,413.4 	"/>
	<polygon class="st3" points="-558,411.6 -553.3,413.8 -558,417.7 -559.5,416 -559.5,415 -560.2,415.3 -561.9,413.4 	"/>
	<polygon class="st4" points="-553.3,409.5 -553.3,413.8 -558,411.6 	"/>
	<polygon class="st5" points="-555.1,420.8 -558,417.7 -553.3,413.8 -553.3,418.2 	"/>
	<polygon class="st6" points="-559.5,427.4 -555.1,420.8 -558,417.7 -559.5,419 	"/>
	<polygon class="st7" points="-559.5,429.4 -553.3,422.7 -555.1,420.8 -559.5,427.4 	"/>
	<polygon class="st8" points="-553.3,430 -553.3,422.7 -559.5,429.4 	"/>
	<polygon class="st9" points="-553.3,422.7 -555.1,420.8 -553.3,418.2 	"/>
	<polygon class="st2" points="-559.5,416 -559.5,419 -558,417.7 	"/>
</g>
</svg>
